HIERARCHY
ROOT pelvis
{
  OFFSET 0 100 0
  CHANNELS 6 Xposition Yposition Zposition Zrotation Xrotation Yrotation
  JOINT pelvis_right_femur
  {
    OFFSET -10.78128 -3.44521 -0.5502486
    CHANNELS 3 Zrotation Xrotation Yrotation
    JOINT right_femur_tibia
    {
      OFFSET -0.8047443 -44.0398 -0.1307829
      CHANNELS 3 Zrotation Xrotation Yrotation
      JOINT right_tibia_foot
      {
        OFFSET 3.006224 -47.83518 -5
        CHANNELS 3 Zrotation Xrotation Yrotation
        End Site
        {
          OFFSET 0 -5 15
        }
      }
    }
  }
  JOINT pelvis_left_femur
  {
    OFFSET 10.78128 -3.44521 -0.5502486
    CHANNELS 3 Zrotation Xrotation Yrotation
    JOINT left_femur_tibia
    {
      OFFSET 0.8047443 -44.0398 -0.1307829
      CHANNELS 3 Zrotation Xrotation Yrotation
      JOINT left_tibia_foot
      {
        OFFSET -4.370144 -48.10324 -4.275266
        CHANNELS 3 Zrotation Xrotation Yrotation
        End Site
        {
          OFFSET 0 -5 15
        }
      }
    }
  }
  JOINT pelvis_spine1
  {
    OFFSET 0 6.468898 -3.129235
    CHANNELS 3 Zrotation Xrotation Yrotation
    JOINT spine1
    {
      OFFSET 0 23.15396 4.99043
      CHANNELS 3 Zrotation Xrotation Yrotation
      JOINT spine2
      {
        OFFSET 0 20.79997 -5.064912
        CHANNELS 3 Zrotation Xrotation Yrotation
        JOINT neck
        {
          OFFSET 0 14.38658 9.616178
          CHANNELS 3 Zrotation Xrotation Yrotation
          End Site
          {
            OFFSET 0 20 0
          }
        }
      }
      JOINT right_manubrium
      {
        OFFSET -5.722621 16.35077 3.967754
        CHANNELS 3 Zrotation Xrotation Yrotation
        JOINT right_clavicle
        {
          OFFSET -13.16364 1.694482 -4.693211
          CHANNELS 3 Zrotation Xrotation Yrotation
          JOINT right_humerus
          {
            OFFSET -28.5034 -0.3100689 -2.792744
            CHANNELS 3 Zrotation Xrotation Yrotation
            JOINT right_radius
            {
              OFFSET -25.15693 0.02248979 -1.271978
              CHANNELS 3 Zrotation Xrotation Yrotation
              End Site
              {
                OFFSET -15 0 0
              }
            }
          }
        }
      }
      JOINT left_manubrium
      {
        OFFSET 5.722621 16.35077 3.967754
        CHANNELS 3 Zrotation Xrotation Yrotation
        JOINT left_clavicle
        {
          OFFSET 13.16364 1.694482 -4.693211
          CHANNELS 3 Zrotation Xrotation Yrotation
          JOINT left_humerus
          {
            OFFSET 29.39168 -1.063119 -2.237045
            CHANNELS 3 Zrotation Xrotation Yrotation
            JOINT left_radius
            {
              OFFSET 24.59957 -0.9528479 0.9047498
              CHANNELS 3 Zrotation Xrotation Yrotation
              End Site
              {
                OFFSET 15 -0 -0
              }
            }
          }
        }
      }
    }
  }
}
MOTION
Frames: 13
Frame Time: 0.0416666666667
35.87503 102.0856 3000.373 -0.6357889 -6.882613 -3.440967 6.18473 -8.496263 3.299782 -0 15.91749 -0 -5.740907 -4.741626 -5.216217 -2.56822 1.361321 -6.84087 -0 57.02672 -0 -5.873971 -6.882127 13.87705 0.8228675 -2.547903 4.628338 0.5130761 14.22528 -7.25483 1.89629 21.64212 4.001198 1.109992 -19.17479 6.333373 -3.01133 -22.23994 11.42312 95.03179 14.89345 -20.93395 -0 0 12.87887 -22.28631 13.45525 11.11804 4.334397 -25.59673 -8.508319 -87.72053 18.38139 18.95757 0 0 -24.35191 5.038513 13.59398 8.505152
35.28239 103.1633 3006.12 -0.7228793 -6.988814 -4.311768 6.334911 -3.146723 3.782402 -0 14.70798 -0 -5.982909 -7.485307 -4.576314 -1.835607 -4.042814 -6.658702 -0 57.58037 -0 -5.532809 -5.364619 15.06081 0.9815455 -2.683228 5.279609 0.2797515 14.48781 -6.802893 1.860384 21.47829 3.830853 1.04721 -19.33063 6.156676 -3.179485 -23.53826 11.51824 94.25675 14.59846 -19.31273 -0 0 14.98533 -22.67235 13.48386 11.74968 3.985888 -25.04101 -8.449165 -89.31459 18.22396 22.02501 0 0 -22.29791 4.422241 13.68216 9.342087
34.77111 103.9333 3011.774 -0.7697883 -6.892166 -5.276335 6.135523 1.71556 3.697561 -0 12.91796 -0 -6.093747 -9.745124 -3.737826 -1.023505 -9.179805 -6.206687 -0 53.68232 -0 -4.988952 -4.624453 16.05349 1.138919 -2.810627 5.937727 0.04253286 14.73772 -6.344298 1.825308 21.31371 3.661988 0.9806243 -19.48541 5.983996 -3.339484 -24.83604 11.60963 93.48254 14.29773 -17.6782 -0 0 17.11437 -23.06154 13.51456 12.38751 3.632521 -24.46262 -8.375143 -90.94271 18.01854 25.09519 0 0 -20.23058 3.756721 13.74503 10.24011
34.3704 104.227 3017.476 -0.7592788 -6.684988 -6.236432 5.674794 6.074087 3.213123 -0 11.11709 -0 -6.031029 -11.41487 -2.785154 -0.1715767 -13.884 -5.541795 -0 46.41612 -0 -4.318745 -4.522801 16.86454 1.271005 -2.901502 6.605693 -0.2118127 14.93856 -5.849526 1.795911 21.16521 3.503856 0.9189388 -19.59672 5.820971 -3.457443 -26.08603 11.69307 92.63311 14.06072 -15.95041 -0 0 19.27955 -23.49651 13.54018 13.05464 3.283419 -23.79864 -8.252294 -92.59373 17.77192 28.11821 0 0 -18.05282 3.018208 13.7413 11.20351
34.09811 103.9755 3023.3 -0.6943338 -6.438302 -7.125213 5.066646 9.953707 2.569375 -0 9.750372 -0 -5.821112 -12.60032 -1.811374 0.6495818 -18.07399 -4.81843 -0 37.34221 -0 -3.581237 -4.839715 17.5737 1.357489 -2.931547 7.286131 -0.4943163 15.05882 -5.294195 1.777034 21.04672 3.363528 0.8680308 -19.62718 5.673038 -3.506776 -27.24826 11.7658 91.64449 13.93413 -14.05926 -0 0 21.49313 -24.01694 13.55585 13.77222 2.943884 -22.99532 -8.05245 -94.25576 17.49709 31.05182 0 0 -15.68735 2.17953 13.63068 12.24585
33.95481 103.222 3029.253 -0.5922344 -6.231651 -7.906082 4.403005 13.2526 1.996797 -0 9.2934 -0 -5.496968 -13.34873 -0.9452041 1.313903 -21.5403 -4.220029 -0 28.26825 -0 -2.873802 -5.350802 18.22229 1.381005 -2.883941 7.9428 -0.7948598 15.071 -4.695996 1.773564 20.97261 3.252547 0.832127 -19.55143 5.553114 -3.470488 -28.23285 11.82238 90.53168 13.94349 -12.06592 -0 0 23.63964 -24.62055 13.56006 14.51421 2.632508 -22.06321 -7.769957 -95.8262 17.2361 33.70875 0 0 -13.22762 1.258994 13.38718 13.33388
33.91835 102.1301 3035.317 -0.4772368 -6.173888 -8.559087 3.728994 15.76218 1.669375 -0 10.33919 -0 -5.061993 -13.52433 -0.3478476 1.656469 -23.92991 -3.902479 -0 21.0144 -0 -2.355066 -5.860793 18.77068 1.326962 -2.752331 8.489117 -1.07691 14.95559 -4.124256 1.78922 20.95969 3.189306 0.817632 -19.35952 5.481329 -3.340536 -28.88553 11.85372 89.40205 14.1108 -10.19702 -0 0 25.43766 -25.24826 13.55202 15.19257 2.390348 -21.09729 -7.428956 -97.08547 17.0692 35.71991 0 0 -10.96938 0.3577658 13.0185 14.34017
33.94891 100.9537 3041.484 -0.3665013 -6.369018 -9.061629 3.032658 17.31737 1.657575 -0 13.43589 -0 -4.484411 -12.8817 -0.1511783 1.549267 -24.93331 -3.936098 -0 16.73426 -0 -2.179356 -6.263279 19.13563 1.190406 -2.545282 8.831813 -1.296356 14.71343 -3.663373 1.82371 21.01973 3.190368 0.8330083 -19.06252 5.472912 -3.119862 -29.06656 11.85209 88.3931 14.45756 -8.725727 -0 0 26.5811 -25.81129 13.52917 15.70054 2.26357 -20.23097 -7.072501 -97.80643 17.07555 36.72479 0 0 -9.248929 -0.3733294 12.57526 15.08252
34.00644 99.9621 3047.772 -0.2583044 -6.840963 -9.37803 2.276081 17.8813 1.917875 -0 18.73169 -0 -3.732068 -11.2921 -0.387312 0.974082 -24.47302 -4.298172 -0 15.35556 -0 -2.382703 -6.587693 19.27305 0.9889766 -2.290723 8.94108 -1.42986 14.37896 -3.359713 1.870724 21.14393 3.254769 0.8794803 -18.70181 5.524359 -2.831815 -28.77559 11.81835 87.59476 14.96853 -7.793987 -0 0 26.96792 -26.23972 13.49191 15.98409 2.265327 -19.55816 -6.74213 -97.93017 17.26767 36.66379 0 0 -8.222374 -0.8392773 12.13033 15.46039
34.06599 99.3652 3054.2 -0.1351169 -7.506458 -9.465131 1.449386 17.45418 2.335716 -0 25.81635 -0 -2.815009 -8.865301 -0.9941568 0.01156233 -22.66172 -4.924914 -0 15.89146 -0 -2.859437 -6.96647 19.20389 0.7593175 -2.027433 8.857933 -1.480512 14.00875 -3.211974 1.920966 21.30376 3.363116 0.9464116 -18.33715 5.616804 -2.518049 -28.15065 11.76155 87.03851 15.57615 -7.383901 -0 0 26.7264 -26.50522 13.44787 16.05771 2.36817 -19.10763 -6.466349 -97.57989 17.58914 35.78698 0 0 -7.843584 -1.048095 11.74235 15.51295
34.12023 99.28263 3060.757 0.02427805 -8.22117 -9.284183 0.592653 15.94542 2.784547 -0 33.94348 -0 -1.791462 -5.861573 -1.878684 -1.228115 -19.6138 -5.767664 -0 17.22042 -0 -3.440978 -7.560764 18.97452 0.5344096 -1.786161 8.633306 -1.459408 13.65028 -3.204986 1.967583 21.47222 3.494826 1.020642 -18.01543 5.732624 -2.217117 -27.3336 11.6909 86.73817 16.20541 -7.439123 -0 0 26.01933 -26.60477 13.40661 15.95479 2.538925 -18.88048 -6.262088 -96.89854 17.97537 34.36552 0 0 -8.024475 -1.045086 11.44207 15.32249
34.17395 99.73928 3067.387 0.2314015 -8.814684 -8.816601 -0.2030872 13.1856 3.16141 -0 42.16191 -0 -0.7727346 -2.644959 -2.936108 -2.628976 -15.41215 -6.808016 -0 18.50387 -0 -3.947522 -8.501869 18.63996 0.3344423 -1.585585 8.287551 -1.370198 13.3325 -3.338122 2.007212 21.63423 3.638126 1.093562 -17.76318 5.863121 -1.955747 -26.395 11.61136 86.72878 16.80135 -7.961179 -0 0 24.91182 -26.53348 13.37484 15.68679 2.762506 -18.89213 -6.144508 -95.94591 18.38372 32.51699 0 0 -8.75271 -0.8475609 11.24686 14.92726
34.23659 100.6542 3073.975 0.4710176 -9.090651 -8.089111 -0.7916112 9.090152 3.399387 -0 49.13465 -0 0.04068884 0.2358844 -4.00156 -4.029072 -10.2932 -8.0318 -0 19.20067 -0 -4.186462 -9.838196 18.28299 0.1754787 -1.441872 7.819272 -1.20917 13.07947 -3.626082 2.037845 21.77998 3.785375 1.158522 -17.60047 6.00403 -1.759409 -25.36571 11.52605 87.07569 17.30735 -9.006459 -0 0 23.3985 -26.27778 13.35768 15.24582 3.035112 -19.18115 -6.134673 -94.72635 18.7785 30.26132 0 0 -10.08461 -0.4442684 11.1745 14.32793
